
		<svg xmlns="http://www.w3.org/2000/svg" xmlns:xlink="http://www.w3.org/1999/xlink" version="1.1" width="3184.0490797546013" height="1039.877300613497">
			
			<g transform="scale(9.202453987730062) translate(10, 10)">
				<defs id="SvgjsDefs1021"/><g id="main_text" rel="mainfill" name="main_text" feature="main_text" xmlns:name="mainText_mainfill" groupName="main_text" fill="#fff" transform="translate(49.30489104582789, -12.18802192909559) scale(3.2188024998784868)"><path d="M3.18 24 c-0.62 0 -1.1 -0.5 -1.1 -1.1 l0 -11.8 c0 -0.6 0.48 -1.1 1.1 -1.1 l0.02 0 l0.04 0 l6.48 0 c0.58 0 1.1 0.5 1.1 1.1 c0 0.62 -0.52 1.12 -1.1 1.12 l-5.42 0 l0 3.66 l4.66 0 c0.6 0 1.1 0.52 1.1 1.1 c0 0.62 -0.5 1.12 -1.1 1.12 l-4.66 0 l0 4.8 c0 0.6 -0.5 1.1 -1.12 1.1 z M18.14 24 c-2.74 -0.02 -4.86 -2.28 -4.88 -5 c0.02 -2.72 2.14 -5 4.88 -5 c2.6 0 4.66 1.94 4.82 4.64 l0 0.1 l0 0 l0 0 c0 0.04 0 0.14 -0.02 0.18 c-0.06 0.48 -0.48 0.8 -1.04 0.8 l-6.36 0 c0.1 0.46 0.32 0.98 0.68 1.32 c0.42 0.48 1.22 0.84 1.92 0.9 c0.72 0.06 1.58 -0.12 2.08 -0.5 c0.42 -0.44 1.24 -0.38 1.5 -0.06 c0.26 0.28 0.46 0.88 0 1.3 c-0.98 0.9 -2.16 1.32 -3.58 1.32 z M18.14 15.9 c-1.7 0.08 -2.54 1.3 -2.7 2.12 l5.66 0 c-0.2 -0.8 -1.22 -1.98 -2.96 -2.12 z M34.6 15.08 l0 3.94 l0 0 l0 0 l0 3.92 c0 0.58 -0.48 1.06 -1.06 1.06 c-0.52 0 -0.92 -0.38 -1.04 -0.86 c-0.76 0.54 -1.66 0.86 -2.66 0.86 l0 0 c-1.36 0 -2.54 -0.56 -3.4 -1.46 c-0.86 -0.92 -1.36 -2.16 -1.36 -3.52 c0 -1.38 0.5 -2.62 1.36 -3.52 c0.86 -0.92 2.04 -1.5 3.4 -1.5 c1 0 1.9 0.34 2.66 0.88 c0.12 -0.5 0.52 -0.88 1.04 -0.88 c0.58 0 1.06 0.48 1.06 1.08 z M31.700000000000003 21.08 c0.48 -0.52 0.78 -1.24 0.78 -2.06 c0 -0.84 -0.3 -1.56 -0.78 -2.06 c-0.48 -0.54 -1.16 -0.82 -1.86 -0.82 c-0.72 0 -1.4 0.28 -1.86 0.82 c-0.48 0.5 -0.76 1.22 -0.76 2.06 c0 0.82 0.28 1.54 0.76 2.06 c0.46 0.5 1.14 0.78 1.86 0.78 c0.7 0 1.38 -0.28 1.86 -0.78 z M41.900000000000006 14 c0.6 0 1.12 0.48 1.12 1.1 c0 0.6 -0.52 1.1 -1.12 1.1 l-0.5 0 l0 5.58 l0 0 c0.62 0 1.1 0.5 1.1 1.12 s-0.48 1.1 -1.1 1.1 c-1.22 0 -2.22 -1 -2.22 -2.22 l0 -5.58 l-0.58 0 c-0.62 0 -1.1 -0.5 -1.1 -1.1 c0 -0.62 0.48 -1.1 1.1 -1.1 l0.58 0 l0 -2.9 l0 0 c0 -0.62 0.5 -1.1 1.12 -1.1 s1.1 0.48 1.1 1.1 l0 2.9 l0.5 0 z M48.74 18.38 l0 4.52 c0 0.62 -0.5 1.1 -1.12 1.1 c-0.5 0 -0.92 -0.36 -1.06 -0.82 c-0.02 -0.08 -0.04 -0.18 -0.04 -0.28 l0 -11.8 c0 -0.62 0.5 -1.1 1.1 -1.1 c0.62 0 1.12 0.48 1.12 1.1 l0 3.48 c0.64 -0.34 1.36 -0.58 2.14 -0.58 c2.42 0 4.36 1.98 4.36 4.38 l0 4.52 c0 0.62 -0.48 1.1 -1.1 1.1 s-1.1 -0.48 -1.1 -1.1 l0 -4.52 c0 -1.18 -0.96 -2.14 -2.16 -2.16 c-1.18 0.02 -2.12 0.98 -2.14 2.16 z M62.96 24 c-2.74 -0.02 -4.86 -2.28 -4.88 -5 c0.02 -2.72 2.14 -5 4.88 -5 c2.6 0 4.66 1.94 4.82 4.64 l0 0.1 l0 0 l0 0 c0 0.04 0 0.14 -0.02 0.18 c-0.06 0.48 -0.48 0.8 -1.04 0.8 l-6.36 0 c0.1 0.46 0.32 0.98 0.68 1.32 c0.42 0.48 1.22 0.84 1.92 0.9 c0.72 0.06 1.58 -0.12 2.08 -0.5 c0.42 -0.44 1.24 -0.38 1.5 -0.06 c0.26 0.28 0.46 0.88 0 1.3 c-0.98 0.9 -2.16 1.32 -3.58 1.32 z M62.96 15.9 c-1.7 0.08 -2.54 1.3 -2.7 2.12 l5.66 0 c-0.2 -0.8 -1.22 -1.98 -2.96 -2.12 z M76.05999999999999 14.02 c0.6 0 1.06 0.46 1.06 1.04 c0 0.56 -0.46 1.06 -1.06 1.06 c-0.46 0 -0.86 0.12 -1.2 0.38 c-0.38 0.24 -0.68 0.58 -0.92 0.96 c-0.48 0.64 -0.72 1.4 -0.82 1.68 l0 3.8 c0 0.58 -0.5 1.06 -1.1 1.06 c-0.58 0 -1.06 -0.48 -1.06 -1.06 l0 -7.88 c0 -0.58 0.48 -1.04 1.06 -1.04 c0.6 0 1.1 0.46 1.1 1.04 l0 0.14 c0.12 -0.14 0.28 -0.3 0.42 -0.4 c0.66 -0.44 1.52 -0.8 2.52 -0.78 z M84.83999999999999 14.02 c0.6 0 1.06 0.46 1.06 1.04 c0 0.56 -0.46 1.06 -1.06 1.06 c-0.46 0 -0.86 0.12 -1.2 0.38 c-0.38 0.24 -0.68 0.58 -0.92 0.96 c-0.48 0.64 -0.72 1.4 -0.82 1.68 l0 3.8 c0 0.58 -0.5 1.06 -1.1 1.06 c-0.58 0 -1.06 -0.48 -1.06 -1.06 l0 -7.88 c0 -0.58 0.48 -1.04 1.06 -1.04 c0.6 0 1.1 0.46 1.1 1.04 l0 0.14 c0.12 -0.14 0.28 -0.3 0.42 -0.4 c0.66 -0.44 1.52 -0.8 2.52 -0.78 z"/></g><g id="slogan_text" rel="mainfill" name="slogan_text" feature="slogan_text" xmlns:name="sloganText_mainfill" groupName="slogan_text" fill="#fff" transform="translate(54.8938305173549, 75.92923659517871) scale(0.6584341896963555)"><path d="M1.68 23.98 l1.06 -13.64 q0.38 -0.06 1.03 -0.06 t0.99 0.06 l2.3 7.02 q0.18 0.5 0.48 1.6 t0.34 1.32 l0.1 0 q0.28 -1.38 0.82 -2.92 l2.3 -7.02 q0.42 -0.06 1.01 -0.06 t1.01 0.06 l1.06 13.64 q-0.36 0.1 -0.75 0.1 t-0.73 -0.06 l-0.58 -8.28 q-0.06 -0.9 -0.16 -3.78 l-0.1 0 l-3.16 9.9 q-0.48 0.08 -0.8 0.08 t-0.72 -0.08 l-3.18 -9.9 l-0.1 0 q-0.02 0.5 -0.07 1.89 t-0.09 1.89 l-0.56 8.28 q-0.36 0.06 -0.76 0.06 t-0.74 -0.1 z M24.82 23.38 q-0.22 0.56 -0.68 0.76 q-0.98 -0.36 -1.24 -1.4 q-1.54 1.5 -3.02 1.5 q-0.76 0 -1.32 -0.24 t-0.93 -0.64 t-0.56 -0.92 t-0.19 -1.1 q0 -0.8 0.27 -1.41 t0.74 -1.01 t1.11 -0.6 t1.38 -0.2 q1.5 0 2.44 0.18 l0 -1 q0 -2.04 -1.8 -2.04 q-1.38 0 -3.26 0.82 q-0.52 -0.46 -0.52 -1.16 q2.16 -0.94 3.92 -0.94 q3.1 0 3.1 3.34 l0 4.12 q-0.02 0.72 0.13 1.19 t0.43 0.75 z M22.82 21.38 l0 -2 q-0.48 -0.08 -1 -0.11 t-1.1 -0.03 q-1.14 0 -1.74 0.53 t-0.6 1.39 q0 0.84 0.42 1.33 t1.14 0.49 q0.74 0 1.51 -0.41 t1.37 -1.19 z M33.56 20.42 l0.78 1.76 q0.52 1.18 0.96 1.5 q-0.32 0.44 -0.88 0.44 t-0.79 -0.24 t-0.47 -0.8 l-0.92 -2.08 q-0.38 -0.88 -0.78 -1.18 t-1.06 -0.3 t-1.24 0.08 l0 4.4 q-0.3 0.06 -0.73 0.06 t-0.73 -0.06 l0 -14.58 l0.12 -0.12 l0.54 0 q0.48 0 0.64 0.23 t0.16 0.77 l0 8.04 l0.86 -0.04 q0.28 0 0.46 -0.28 l2.14 -3.16 q0.26 -0.4 0.48 -0.57 t0.52 -0.17 t0.86 0.04 l0.12 0.16 l-2.54 3.7 q-0.26 0.38 -0.48 0.56 q0.68 0.14 1.14 0.57 t0.84 1.27 z M44.540000000000006 19.54 l-6.2 0 q0.1 3.4 2.58 3.4 q1.36 0 2.9 -0.84 q0.44 0.4 0.54 1.02 q-1.64 1.12 -3.68 1.12 q-1.04 0 -1.78 -0.39 t-1.21 -1.08 t-0.69 -1.63 t-0.22 -2.06 q0 -1.14 0.27 -2.08 t0.79 -1.62 t1.25 -1.06 t1.67 -0.38 q0.92 0 1.65 0.33 t1.22 0.9 t0.75 1.36 t0.26 1.69 q0 0.36 -0.03 0.69 t-0.07 0.63 z M38.34 18.4 l4.8 0 l0 -0.26 q0 -1.38 -0.58 -2.22 t-1.74 -0.84 q-1.14 0 -1.77 0.9 t-0.71 2.42 z  M51.42 14.88 q0.14 -0.52 0.64 -0.84 q1.12 0.42 1.44 1.78 q0.82 -1.76 2.68 -1.76 q0.42 0 0.92 0.08 q0 0.86 -0.34 1.4 q-0.24 -0.02 -0.7 -0.02 q-1.62 0 -2.44 1.82 l0 6.66 q-0.3 0.06 -0.74 0.06 t-0.74 -0.06 l0 -7.08 q0 -1.36 -0.72 -2.04 z M66.06 19.54 l-6.2 0 q0.1 3.4 2.58 3.4 q1.36 0 2.9 -0.84 q0.44 0.4 0.54 1.02 q-1.64 1.12 -3.68 1.12 q-1.04 0 -1.78 -0.39 t-1.21 -1.08 t-0.69 -1.63 t-0.22 -2.06 q0 -1.14 0.27 -2.08 t0.79 -1.62 t1.25 -1.06 t1.67 -0.38 q0.92 0 1.65 0.33 t1.22 0.9 t0.75 1.36 t0.26 1.69 q0 0.36 -0.03 0.69 t-0.07 0.63 z M59.86000000000001 18.4 l4.8 0 l0 -0.26 q0 -1.38 -0.58 -2.22 t-1.74 -0.84 q-1.14 0 -1.77 0.9 t-0.71 2.42 z M76.28 23.38 q-0.22 0.56 -0.68 0.76 q-0.98 -0.36 -1.24 -1.4 q-1.54 1.5 -3.02 1.5 q-0.76 0 -1.32 -0.24 t-0.93 -0.64 t-0.56 -0.92 t-0.19 -1.1 q0 -0.8 0.27 -1.41 t0.74 -1.01 t1.11 -0.6 t1.38 -0.2 q1.5 0 2.44 0.18 l0 -1 q0 -2.04 -1.8 -2.04 q-1.38 0 -3.26 0.82 q-0.52 -0.46 -0.52 -1.16 q2.16 -0.94 3.92 -0.94 q3.1 0 3.1 3.34 l0 4.12 q-0.02 0.72 0.13 1.19 t0.43 0.75 z M74.28 21.38 l0 -2 q-0.48 -0.08 -1 -0.11 t-1.1 -0.03 q-1.14 0 -1.74 0.53 t-0.6 1.39 q0 0.84 0.42 1.33 t1.14 0.49 q0.74 0 1.51 -0.41 t1.37 -1.19 z M81.32000000000001 22.86 l0.84 0 q0.08 0.18 0.11 0.4 t0.03 0.4 q0 0.12 -0.01 0.19 t-0.01 0.11 q-0.32 0.06 -0.62 0.1 t-0.6 0.04 q-0.82 0 -1.38 -0.37 t-0.56 -1.31 l0 -13 l0.12 -0.12 l0.54 0 q0.48 0 0.64 0.23 t0.16 0.77 l0 11.7 q0 0.86 0.74 0.86 z  M89.62 24 l0 -8.7 l-1.72 0.02 q-0.06 -0.3 -0.06 -0.56 q0 -0.28 0.06 -0.58 l1.66 0.04 q-0.08 -0.9 -0.11 -1.41 t-0.03 -0.67 q0 -0.64 0.19 -1.17 t0.55 -0.92 t0.87 -0.61 t1.15 -0.22 q1.26 0 2.38 0.42 q0 0.64 -0.36 1.02 q-0.58 -0.16 -1.02 -0.24 t-0.78 -0.08 q-0.78 0 -1.19 0.51 t-0.41 1.45 q0 0.76 0.18 1.92 l2.92 -0.04 q0.06 0.3 0.06 0.58 q0 0.26 -0.06 0.56 l-2.84 -0.02 l0 8.7 q-0.3 0.06 -0.72 0.06 t-0.72 -0.06 z M95.08000000000001 14.88 q0.14 -0.52 0.64 -0.84 q1.12 0.42 1.44 1.78 q0.82 -1.76 2.68 -1.76 q0.42 0 0.92 0.08 q0 0.86 -0.34 1.4 q-0.24 -0.02 -0.7 -0.02 q-1.62 0 -2.44 1.82 l0 6.66 q-0.3 0.06 -0.74 0.06 t-0.74 -0.06 l0 -7.08 q0 -1.36 -0.72 -2.04 z M104.32000000000002 15.56 l0 8.44 q-0.3 0.06 -0.74 0.06 t-0.74 -0.06 l0 -7.72 q0 -0.56 -0.18 -0.76 t-0.64 -0.2 l-0.18 0 q-0.08 -0.22 -0.08 -0.54 t0.08 -0.56 q0.38 -0.04 0.62 -0.07 t0.38 -0.03 l0.16 0 q0.62 0 0.97 0.39 t0.35 1.05 z M102.36000000000001 10.76 q0.32 -0.2 0.92 -0.2 q0.58 0 0.8 0.18 t0.22 0.76 t-0.24 0.77 t-0.78 0.19 q-0.48 0 -0.77 -0.15 t-0.29 -0.81 q0 -0.46 0.14 -0.74 z M114.84000000000002 19.54 l-6.2 0 q0.1 3.4 2.58 3.4 q1.36 0 2.9 -0.84 q0.44 0.4 0.54 1.02 q-1.64 1.12 -3.68 1.12 q-1.04 0 -1.78 -0.39 t-1.21 -1.08 t-0.69 -1.63 t-0.22 -2.06 q0 -1.14 0.27 -2.08 t0.79 -1.62 t1.25 -1.06 t1.67 -0.38 q0.92 0 1.65 0.33 t1.22 0.9 t0.75 1.36 t0.26 1.69 q0 0.36 -0.03 0.69 t-0.07 0.63 z M108.64000000000001 18.4 l4.8 0 l0 -0.26 q0 -1.38 -0.58 -2.22 t-1.74 -0.84 q-1.14 0 -1.77 0.9 t-0.71 2.42 z M125.36000000000003 17.14 l0 4.96 q0 1.14 0.22 1.7 q-0.32 0.32 -0.94 0.32 q-0.76 0 -0.76 -0.98 l0 -5.54 q0 -1.22 -0.3 -1.73 t-1.14 -0.51 q-0.8 0 -1.66 0.43 t-1.44 1.11 l0 7.1 q-0.3 0.06 -0.74 0.06 t-0.74 -0.06 l0 -9.76 l0.12 -0.12 l0.56 0 q0.48 0 0.64 0.25 t0.16 0.79 l0 0.28 q0.68 -0.64 1.6 -1.03 t1.84 -0.39 q1.34 0 1.96 0.86 t0.62 2.26 z M131.76000000000002 14.02 q1.2 0 2.5 0.82 l0 -5.42 l0.12 -0.12 l0.54 0 q0.46 0 0.62 0.23 t0.16 0.77 l0 10.94 q0 1.58 0.56 2.14 q-0.2 0.54 -0.66 0.76 q-0.92 -0.32 -1.22 -1.34 q-1.24 1.44 -2.92 1.44 q-1.74 0 -2.59 -1.36 t-0.85 -3.78 q0 -1.22 0.32 -2.17 t0.84 -1.6 t1.19 -0.98 t1.39 -0.33 z M131.66000000000003 22.96 q0.68 0 1.39 -0.41 t1.21 -1.13 l0 -5.22 q-1.32 -0.9 -2.32 -0.9 q-1.02 0 -1.72 0.97 t-0.7 2.91 t0.61 2.86 t1.53 0.92 z M138.24000000000004 23.24 q0.02 -0.62 0.58 -1.08 q0.9 0.52 1.61 0.72 t1.29 0.2 q0.5 0 0.87 -0.13 t0.63 -0.34 t0.4 -0.47 t0.16 -0.52 q0 -0.6 -0.37 -1.01 t-1.09 -0.69 l-1.12 -0.44 q-1.28 -0.5 -1.92 -1.17 t-0.64 -1.61 q0 -0.62 0.26 -1.13 t0.72 -0.87 t1.08 -0.56 t1.36 -0.2 q1.48 0 2.96 0.66 q0 0.7 -0.46 1.16 q-0.76 -0.34 -1.39 -0.48 t-1.15 -0.14 q-0.92 0 -1.39 0.42 t-0.47 0.96 q0 0.58 0.36 0.91 t1.14 0.63 l1.18 0.46 q2.48 0.98 2.48 2.9 q0 1.34 -1.02 2.08 t-2.76 0.74 q-1.7 0 -3.3 -1 z M149.80000000000004 22.18 q0.22 0.4 0.22 1.18 q0 1.22 -0.67 2.2 t-1.95 1.46 q-0.24 -0.14 -0.33 -0.34 t-0.09 -0.48 q1.52 -0.76 1.54 -2.02 q-0.32 -0.06 -0.5 -0.13 t-0.28 -0.19 t-0.13 -0.32 t-0.03 -0.5 q0 -0.42 0.1 -0.64 t0.27 -0.32 t0.4 -0.11 t0.49 -0.01 q0.64 0 0.96 0.22 z  M164.46000000000006 19.54 l-6.2 0 q0.1 3.4 2.58 3.4 q1.36 0 2.9 -0.84 q0.44 0.4 0.54 1.02 q-1.64 1.12 -3.68 1.12 q-1.04 0 -1.78 -0.39 t-1.21 -1.08 t-0.69 -1.63 t-0.22 -2.06 q0 -1.14 0.27 -2.08 t0.79 -1.62 t1.25 -1.06 t1.67 -0.38 q0.92 0 1.65 0.33 t1.22 0.9 t0.75 1.36 t0.26 1.69 q0 0.36 -0.03 0.69 t-0.07 0.63 z M158.26000000000005 18.4 l4.8 0 l0 -0.26 q0 -1.38 -0.58 -2.22 t-1.74 -0.84 q-1.14 0 -1.77 0.9 t-0.71 2.42 z M174.68000000000006 23.38 q-0.22 0.56 -0.68 0.76 q-0.98 -0.36 -1.24 -1.4 q-1.54 1.5 -3.02 1.5 q-0.76 0 -1.32 -0.24 t-0.93 -0.64 t-0.56 -0.92 t-0.19 -1.1 q0 -0.8 0.27 -1.41 t0.74 -1.01 t1.11 -0.6 t1.38 -0.2 q1.5 0 2.44 0.18 l0 -1 q0 -2.04 -1.8 -2.04 q-1.38 0 -3.26 0.82 q-0.52 -0.46 -0.52 -1.16 q2.16 -0.94 3.92 -0.94 q3.1 0 3.1 3.34 l0 4.12 q-0.02 0.72 0.13 1.19 t0.43 0.75 z M172.68000000000006 21.38 l0 -2 q-0.48 -0.08 -1 -0.11 t-1.1 -0.03 q-1.14 0 -1.74 0.53 t-0.6 1.39 q0 0.84 0.42 1.33 t1.14 0.49 q0.74 0 1.51 -0.41 t1.37 -1.19 z M176.54000000000008 23.24 q0.02 -0.62 0.58 -1.08 q0.9 0.52 1.61 0.72 t1.29 0.2 q0.5 0 0.87 -0.13 t0.63 -0.34 t0.4 -0.47 t0.16 -0.52 q0 -0.6 -0.37 -1.01 t-1.09 -0.69 l-1.12 -0.44 q-1.28 -0.5 -1.92 -1.17 t-0.64 -1.61 q0 -0.62 0.26 -1.13 t0.72 -0.87 t1.08 -0.56 t1.36 -0.2 q1.48 0 2.96 0.66 q0 0.7 -0.46 1.16 q-0.76 -0.34 -1.39 -0.48 t-1.15 -0.14 q-0.92 0 -1.39 0.42 t-0.47 0.96 q0 0.58 0.36 0.91 t1.14 0.63 l1.18 0.46 q2.48 0.98 2.48 2.9 q0 1.34 -1.02 2.08 t-2.76 0.74 q-1.7 0 -3.3 -1 z M187.88000000000008 15.56 l0 8.44 q-0.3 0.06 -0.74 0.06 t-0.74 -0.06 l0 -7.72 q0 -0.56 -0.18 -0.76 t-0.64 -0.2 l-0.18 0 q-0.08 -0.22 -0.08 -0.54 t0.08 -0.56 q0.38 -0.04 0.62 -0.07 t0.38 -0.03 l0.16 0 q0.62 0 0.97 0.39 t0.35 1.05 z M185.92000000000007 10.76 q0.32 -0.2 0.92 -0.2 q0.58 0 0.8 0.18 t0.22 0.76 t-0.24 0.77 t-0.78 0.19 q-0.48 0 -0.77 -0.15 t-0.29 -0.81 q0 -0.46 0.14 -0.74 z M198.4000000000001 19.54 l-6.2 0 q0.1 3.4 2.58 3.4 q1.36 0 2.9 -0.84 q0.44 0.4 0.54 1.02 q-1.64 1.12 -3.68 1.12 q-1.04 0 -1.78 -0.39 t-1.21 -1.08 t-0.69 -1.63 t-0.22 -2.06 q0 -1.14 0.27 -2.08 t0.79 -1.62 t1.25 -1.06 t1.67 -0.38 q0.92 0 1.65 0.33 t1.22 0.9 t0.75 1.36 t0.26 1.69 q0 0.36 -0.03 0.69 t-0.07 0.63 z M192.20000000000007 18.4 l4.8 0 l0 -0.26 q0 -1.38 -0.58 -2.22 t-1.74 -0.84 q-1.14 0 -1.77 0.9 t-0.71 2.42 z M200.88000000000008 14.88 q0.14 -0.52 0.64 -0.84 q1.12 0.42 1.44 1.78 q0.82 -1.76 2.68 -1.76 q0.42 0 0.92 0.08 q0 0.86 -0.34 1.4 q-0.24 -0.02 -0.7 -0.02 q-1.62 0 -2.44 1.82 l0 6.66 q-0.3 0.06 -0.74 0.06 t-0.74 -0.06 l0 -7.08 q0 -1.36 -0.72 -2.04 z"/></g><g id="SvgjsG1024" rel="mainfill" name="symbol" feature="symbol" xmlns:name="symbol_mainfill" fill="#fff" transform="translate(-11.749113199121567, 12) scale(0.7916371066373855)"><title>11</title><desc>Created with Sketch.</desc><g stroke="#fff" stroke-width="1" fill="none" fill-rule="evenodd"><g fill="#194ea3" stroke="#fff"><path d="M66.8878373,37.0502935 L59.6469234,45.2502935 C59.1372679,45.8273973 59.0136794,46.648728 59.3310861,47.3495108 C59.648689,48.0502935 60.3480431,48.5007828 61.119,48.5007828 L66.8878373,48.5007828 L66.8878373,56.0093933 L61.6066842,60.2477495 C60.762555,60.9252446 60.6287656,62.1571429 61.3079139,62.9992172 C61.6953541,63.4798434 62.2640574,63.7295499 62.8376651,63.7295499 C63.269244,63.7295499 63.7037656,63.5880626 64.0660957,63.2972603 L66.8878373,61.032681 L66.8878373,63.4641879 C66.8878373,65.551272 66.0921627,67.5318982 64.6475502,69.0412916 L52.3671675,81.872407 L52.3671675,22.5193738 C52.3671675,21.4385519 51.4889043,20.5624266 50.405445,20.5624266 C49.3221818,20.5624266 48.4437225,21.4385519 48.4437225,22.5193738 L48.4437225,81.872407 L36.1637321,69.0412916 C34.7191196,67.5318982 33.923445,65.5510763 33.923445,63.4641879 L33.923445,55.7868885 L39.0260813,55.7868885 C39.8144976,55.7868885 40.5264067,55.3158513 40.8332201,54.5913894 C41.1400335,53.8667319 40.9819187,53.0293542 40.432244,52.4655577 L33.923445,45.7902153 L33.923445,32.2407045 L40.0244019,37.1457926 C40.3869282,37.4373777 40.8220383,37.5792564 41.2542057,37.5792564 C41.8272249,37.5792564 42.3951435,37.3299413 42.7827799,36.8502935 C43.4627129,36.0086106 43.3299043,34.7767123 42.4863636,34.0984344 L33.923445,27.2138943 L33.923445,20.355773 C33.923445,11.2896282 41.317177,3.91389432 50.405445,3.91389432 C59.4939091,3.91389432 66.8878373,11.2896282 66.8878373,20.355773 L66.8878373,37.0502935 Z M70.8112823,37.7892368 L70.8112823,20.355773 C70.8112823,9.13150685 61.6572967,0 50.405445,0 C39.1537895,0 30,9.13150685 30,20.355773 L30,46.5849315 C30,47.0945205 30.199311,47.583953 30.5555598,47.9493151 L34.381311,51.8729941 L31.9617225,51.8729941 C30.8782632,51.8729941 30,52.7491194 30,53.8299413 L30,63.4641879 C30,66.5624266 31.1809569,69.5029354 33.3259043,71.7440313 L48.4437225,87.5401174 L48.4437225,97.9459883 C48.4437225,99.0268102 49.3221818,99.9029354 50.405445,99.9029354 C51.4889043,99.9029354 52.3671675,99.0268102 52.3671675,97.9459883 L52.3671675,87.5401174 L67.4851818,71.7440313 C69.6301292,69.5031311 70.8112823,66.5626223 70.8112823,63.4641879 L70.8112823,46.5438356 C70.8112823,45.4630137 69.932823,44.5868885 68.8495598,44.5868885 L65.4614689,44.5868885 L70.3216364,39.0827789 C70.6370813,38.7254403 70.8112823,38.2655577 70.8112823,37.7892368 L70.8112823,37.7892368 Z"/></g></g></g>
			</g>
		</svg>
	